DataType=double
version=3
OpenSimVersion=4.4-2022-10-11-798caa840
endheader
time	ground_force_r_vx	ground_force_r_vy	ground_force_r_vz	ground_force_r_px	ground_force_r_py	ground_force_r_pz	ground_force_l_vx	ground_force_l_vy	ground_force_l_vz	ground_force_l_px	ground_force_l_py	ground_force_l_pz	ground_torque_r_x	ground_torque_r_y	ground_torque_r_z	ground_torque_l_x	ground_torque_l_y	ground_torque_l_z
3.37	-59.67498627992486	660.9664416972195	-30.82445738324702	1.342921850058689	0	-0.4058169542200171	-0.0001297289031045271	4.525977587265173e-05	2.983645846405058e-06	1.12943133085187	0	-0.5574609614109397	0	3.536320615016486	0	0	-3.432080093485491e-16	0
3.375	-57.0721334321489	651.9210165847431	-30.46315491814392	1.343947881343867	0	-0.4057059249882674	-0.0002337209858033502	8.077602064058119e-05	4.462962046492986e-06	1.148287762843012	0	-0.5576000576087237	0	3.407082699375493	0	0	-8.71086988890428e-16	0
3.38	-54.58905523676363	643.293368920822	-30.14279037911742	1.344960286698984	0	-0.4056227535314946	-0.000437969864607337	0.0001500494902380798	6.780733008366758e-06	1.167189177115272	0	-0.5576835640720589	0	3.222836579396997	0	0	-2.333968792973123e-15	0
3.385	-52.25440996744255	635.0796173812286	-29.98018717821606	1.345967680051045	0	-0.4055641628638016	-0.000845148846457585	0.0002872278351338299	1.029439447285993e-05	1.186148240326733	0	-0.5577179627882635	0	2.990377418957451	0	0	-6.920967298611538e-15	0
3.39	-50.07127256385178	627.2884483637608	-30.04744883268283	1.34696602425563	0	-0.4055196232741921	-0.001662274358407962	0.0005607533728507301	1.530501943301351e-05	1.205180778901414	0	-0.5577092820061689	0	2.731379430842793	0	0	-2.117326225372501e-14	0
3.395	-48.01910818587609	619.9216294524344	-30.4261083008741	1.347947749906377	0	-0.4054835837131279	-0.003300448853114688	0.001105840274537021	2.165848220391328e-05	1.224300605815636	0	-0.557663094834654	0	2.466453062890999	0	0	-6.627844432137431e-14	0
3.4	-46.08261760216432	613.0454045049337	-31.07583034731827	1.348905465482138	0	-0.4054591808547752	-0.006554743029409837	0.002182606474329404	2.783618548759616e-05	1.243523107879375	0	-0.5575845268199495	0	2.2108541699561	0	0	-2.110661905668776e-13	0
3.405	-44.19728587864327	606.8115664510792	-31.84766065996736	1.349836106273331	0	-0.4054519946596577	-0.01291300694895863	0.004275540064690068	2.909471347959035e-05	1.262861663148954	0	-0.5574786165948439	0	1.969558458009637	0	0	-6.812345080945727e-13	0
3.41	-42.30280667151338	601.3546927274148	-32.62005630017724	1.350743868049711	0	-0.4054750687865317	-0.02503936425047361	0.00824808338695493	1.45921391079845e-05	1.282329609218834	0	-0.5573502722920677	0	1.738665135779293	0	0	-2.209220809491329e-12	0
3.415	-40.39002990161583	596.7575225170905	-33.19621719353561	1.351631075951734	0	-0.4055353399974412	-0.04746276717373275	0.01556196079908653	-3.653928472025583e-05	1.301938305412944	0	-0.5572044577086682	0	1.512064559314602	0	0	-7.144671444368148e-12	0
3.42	-38.45561371150257	593.0907563687672	-33.52081980425034	1.352498933397749	0	-0.4056334318393433	-0.08741295709111316	0.02854094384003375	-0.0001568693284853622	1.321697898547095	0	-0.5570464863526886	0	1.288555271949704	0	0	-2.290758649935686e-11	0
3.425	-36.544561053291	590.360370596303	-33.57857530078687	1.353347347915529	0	-0.4057680507014953	-0.1556241425295	0.05062279012474014	-0.0003877696880347523	1.34161630362914	0	-0.5568817507828611	0	1.069010279446864	0	0	-7.237289381071405e-11	0
3.43	-34.69314332133511	588.5191540058453	-33.38818538388117	1.354173720726059	0	-0.4059338540374578	-0.2666971147812682	0.08646553059818637	-0.0007647902407210768	1.361699963528916	0	-0.5567154435272836	0	0.8545769082836969	0	0	-2.240473932681869e-10	0
3.435	-32.91377102749221	587.4995753323005	-33.0449621388492	1.354976683196514	0	-0.4061283203662609	-0.4383073652869118	0.1416908339808123	-0.001285531359589695	1.381953192189523	0	-0.5565529160684928	0	0.6478115210440123	0	0	-6.754949574954566e-10	0
3.44	-31.22909081004597	587.2295833643533	-32.57611774526336	1.355757178631877	0	-0.4063522224489639	-0.6878777593173013	0.2218358236795011	-0.001888105960632426	1.402376730563553	0	-0.5563976989539987	0	0.4486287320563633	0	0	-1.970567298312936e-09	0
3.445	-29.61049342430114	587.6679639117839	-32.0021931248175	1.35651674322345	0	-0.4066044145385591	-1.027115047919393	0.330646409716168	-0.002433909234347215	1.422968861258364	0	-0.5562524302539754	0	0.2624122724900317	0	0	-5.524522404647125e-09	0
3.45	-28.01768562958387	588.7527374465765	-31.34667303307849	1.357255764054005	0	-0.4068791943445998	-1.4557565992204	0.4680840388693187	-0.002635134089512618	1.443726114651923	0	-0.5561205400658447	0	0.1016170941812291	0	0	-1.481114445846254e-08	0
3.455	-26.41913349978482	590.39060955744	-30.60437173791683	1.357973879267333	0	-0.4071689804760849	-1.956800932087309	0.628824119044248	-0.002061789570470735	1.464642676665851	0	-0.5560058437256197	0	-0.02961068420920299	0	0	-3.781618790506258e-08	0
3.46	-24.77488949704297	592.5012577041051	-29.8163199629374	1.358670611821259	0	-0.407466904136329	-2.496850311859657	0.8023185954900318	-0.0001870813945414678	1.485710131876226	0	-0.5559133293714198	0	-0.1368909426713287	0	0	-9.173013643153571e-08	0
3.465	-23.05728847983616	595.0449129264439	-29.0603114678583	1.35934542374774	0	-0.4077668499737769	-3.029307400855588	0.9737703342094024	0.003478180540431669	1.506918875343279	0	-0.5558483118844798	0	-0.2235155466055758	0	0	-2.110046810653923e-07	0
3.47	-21.23638625338504	597.9671001257725	-28.40325811023654	1.359997512693897	0	-0.408063546617164	-3.499762981628074	1.125850198093626	0.009173257053360256	1.528258166828721	0	-0.5558170293937306	0	-0.293435108270117	0	0	-4.593723799510563e-07	0
3.475	-19.27627086352651	601.2285721799537	-27.92019946171555	1.360627543670137	0	-0.4083559008072427	-3.85125607246483	1.240313610819492	0.01667230592295554	1.549717984727084	0	-0.555825825935884	0	-0.3494730022746992	0	0	-9.440544142917673e-07	0
3.48	-17.17299545708189	604.8189851843001	-27.63992907337286	1.361235854182912	0	-0.4086442392078959	-4.026273743449703	1.298649293017595	0.02511029798205495	1.5712907375405	0	-0.5558818655497346	0	-0.3923700965006063	0	0	-1.823017705897267e-06	0
3.485	-14.92483704361969	608.7147904238013	-27.52713308827198	1.361823405892953	0	-0.408929695155973	-3.976929255264419	1.28526401476896	0.03293066938008774	1.592969639820033	0	-0.555992696781157	0	-0.4237110172787553	0	0	-3.286769742774642e-06	0
3.49	-12.54370372687741	612.8814535482484	-27.54906505000569	1.362392171251439	0	-0.4092149424435323	-3.670852163489115	1.189343935290756	0.03821953120875709	1.614750108492424	0	-0.5561686640162552	0	-0.4454932513831622	0	0	-5.471744296173253e-06	0
3.495	-10.08384218755286	617.2882500975179	-27.63075152509742	1.362941448681665	0	-0.4094975413350245	-3.120493462907135	1.014235258627342	0.03912547813411875	1.636619911897339	0	-0.5564223827374339	0	-0.459918418105957	0	0	-8.304874895406766e-06	0
3.5	-7.572353649476192	621.9149287606978	-27.75887172599435	1.363469946558494	0	-0.4097743067028813	-2.390677223781217	0.7800427036026787	0.03480204432697265	1.658550196562076	0	-0.5567732351387247	0	-0.4697503494151931	0	0	-1.131865646528812e-05	0
3.505	-5.035195354996036	626.704041399015	-27.93948028934888	1.36397415016577	0	-0.4100391759145423	-1.606282572305974	0.5265582783591201	0.02622284699094829	1.680451684626073	0	-0.5572519584924475	0	-0.4757454902149121	0	0	-1.364915102507885e-05	0
3.51	-2.461928896918705	631.5720140843707	-28.21902377565701	1.364447407979154	0	-0.4102815907104408	-0.9110682502150241	0.3003126879109614	0.01607697069952141	1.702067028511458	0	-0.5579233450509969	0	-0.4746340339240263	0	0	-1.437919520697398e-05	0
3.515	0.1589574531580071	636.5051937916487	-28.66649502613373	1.364885153613715	0	-0.4104945622726319	-0.4123820881911364	0.1368156388053844	0.007550764772403471	1.722552060619539	0	-0.5589721209189031	0	-0.4609418775175484	0	0	-1.305520295890629e-05	0
3.52	2.831715339740788	641.5787416139212	-29.31157221878555	1.365286419108702	0	-0.4106760222340572	-0.1333414723811124	0.04457546125056766	0.002391646890652282	1.738228666099048	0	-0.5612208364084554	0	-0.428391931249152	0	0	-9.780494954983281e-06	0
